<mxfile host="app.diagrams.net" modified="2024-03-23T04:53:28.923Z" agent="Mozilla/5.0 (Windows NT 10.0; Win64; x64) AppleWebKit/537.36 (KHTML, like Gecko) Chrome/122.0.0.0 Safari/537.36" etag="_3oHW_Xdi1pPJG9g38BB" version="24.0.7" type="github" pages="3">
  <diagram name="caso de uso" id="5-A9SeP3aqxtndssichK">
    <mxGraphModel dx="1050" dy="922" grid="0" gridSize="10" guides="1" tooltips="1" connect="1" arrows="1" fold="1" page="0" pageScale="1" pageWidth="827" pageHeight="1169" math="0" shadow="0">
      <root>
        <mxCell id="0" />
        <mxCell id="1" parent="0" />
        <mxCell id="VdqdbNp76ImyUBB9_yxp-5" value="Analisis y Reportes" style="swimlane;whiteSpace=wrap;html=1;" vertex="1" parent="1">
          <mxGeometry x="140" y="-140" width="370" height="400" as="geometry" />
        </mxCell>
        <mxCell id="VdqdbNp76ImyUBB9_yxp-15" style="rounded=0;orthogonalLoop=1;jettySize=auto;html=1;exitX=0;exitY=0;exitDx=0;exitDy=0;entryX=0.5;entryY=1;entryDx=0;entryDy=0;dashed=1;endArrow=none;endFill=0;" edge="1" parent="VdqdbNp76ImyUBB9_yxp-5" source="VdqdbNp76ImyUBB9_yxp-7" target="VdqdbNp76ImyUBB9_yxp-12">
          <mxGeometry relative="1" as="geometry" />
        </mxCell>
        <mxCell id="VdqdbNp76ImyUBB9_yxp-7" value="completar encuesta&amp;nbsp;&lt;div&gt;para calificar el simposio&lt;/div&gt;" style="ellipse;whiteSpace=wrap;html=1;" vertex="1" parent="VdqdbNp76ImyUBB9_yxp-5">
          <mxGeometry x="110" y="280" width="144" height="90" as="geometry" />
        </mxCell>
        <mxCell id="VdqdbNp76ImyUBB9_yxp-9" value="Reporte de las personas que participan." style="ellipse;whiteSpace=wrap;html=1;" vertex="1" parent="VdqdbNp76ImyUBB9_yxp-5">
          <mxGeometry x="110" y="70" width="120" height="80" as="geometry" />
        </mxCell>
        <mxCell id="VdqdbNp76ImyUBB9_yxp-13" value="" style="rounded=0;orthogonalLoop=1;jettySize=auto;html=1;endArrow=none;endFill=0;dashed=1;" edge="1" parent="VdqdbNp76ImyUBB9_yxp-5" source="VdqdbNp76ImyUBB9_yxp-12" target="VdqdbNp76ImyUBB9_yxp-9">
          <mxGeometry relative="1" as="geometry" />
        </mxCell>
        <mxCell id="VdqdbNp76ImyUBB9_yxp-12" value="Analisis de informacion recaudada" style="ellipse;whiteSpace=wrap;html=1;" vertex="1" parent="VdqdbNp76ImyUBB9_yxp-5">
          <mxGeometry x="60" y="170" width="120" height="80" as="geometry" />
        </mxCell>
        <mxCell id="VdqdbNp76ImyUBB9_yxp-16" value="Completa registro de asistencia." style="ellipse;whiteSpace=wrap;html=1;" vertex="1" parent="VdqdbNp76ImyUBB9_yxp-5">
          <mxGeometry x="230" y="170" width="120" height="80" as="geometry" />
        </mxCell>
        <mxCell id="VdqdbNp76ImyUBB9_yxp-18" value="" style="rounded=0;orthogonalLoop=1;jettySize=auto;html=1;endArrow=none;endFill=0;dashed=1;entryX=0;entryY=0.5;entryDx=0;entryDy=0;exitX=1;exitY=0.5;exitDx=0;exitDy=0;" edge="1" parent="VdqdbNp76ImyUBB9_yxp-5" source="VdqdbNp76ImyUBB9_yxp-12" target="VdqdbNp76ImyUBB9_yxp-16">
          <mxGeometry relative="1" as="geometry">
            <mxPoint x="167" y="190" as="sourcePoint" />
            <mxPoint x="173" y="160" as="targetPoint" />
          </mxGeometry>
        </mxCell>
        <mxCell id="VdqdbNp76ImyUBB9_yxp-6" value="Admin" style="shape=umlActor;verticalLabelPosition=bottom;verticalAlign=top;html=1;outlineConnect=0;" vertex="1" parent="1">
          <mxGeometry x="40" y="10" width="30" height="60" as="geometry" />
        </mxCell>
        <mxCell id="VdqdbNp76ImyUBB9_yxp-11" style="rounded=0;orthogonalLoop=1;jettySize=auto;html=1;exitX=0.5;exitY=0.5;exitDx=0;exitDy=0;exitPerimeter=0;entryX=1;entryY=0.5;entryDx=0;entryDy=0;" edge="1" parent="1" source="VdqdbNp76ImyUBB9_yxp-8" target="VdqdbNp76ImyUBB9_yxp-7">
          <mxGeometry relative="1" as="geometry" />
        </mxCell>
        <mxCell id="VdqdbNp76ImyUBB9_yxp-17" style="rounded=0;orthogonalLoop=1;jettySize=auto;html=1;exitX=0.5;exitY=0.5;exitDx=0;exitDy=0;exitPerimeter=0;endArrow=none;endFill=0;" edge="1" parent="1" source="VdqdbNp76ImyUBB9_yxp-8" target="VdqdbNp76ImyUBB9_yxp-16">
          <mxGeometry relative="1" as="geometry" />
        </mxCell>
        <mxCell id="VdqdbNp76ImyUBB9_yxp-8" value="Participante" style="shape=umlActor;verticalLabelPosition=bottom;verticalAlign=top;html=1;outlineConnect=0;" vertex="1" parent="1">
          <mxGeometry x="620" y="30" width="30" height="60" as="geometry" />
        </mxCell>
        <mxCell id="VdqdbNp76ImyUBB9_yxp-10" style="rounded=0;orthogonalLoop=1;jettySize=auto;html=1;exitX=0.5;exitY=0.5;exitDx=0;exitDy=0;exitPerimeter=0;entryX=0.017;entryY=0.625;entryDx=0;entryDy=0;entryPerimeter=0;" edge="1" parent="1" source="VdqdbNp76ImyUBB9_yxp-6" target="VdqdbNp76ImyUBB9_yxp-9">
          <mxGeometry relative="1" as="geometry" />
        </mxCell>
      </root>
    </mxGraphModel>
  </diagram>
  <diagram id="XSMKJUYEkGpB7BYyuTKm" name="Diagrama de Actividades">
    <mxGraphModel dx="2150" dy="1270" grid="0" gridSize="10" guides="1" tooltips="1" connect="1" arrows="1" fold="1" page="0" pageScale="1" pageWidth="827" pageHeight="1169" math="0" shadow="0">
      <root>
        <mxCell id="0" />
        <mxCell id="1" parent="0" />
        <mxCell id="y7UK-94qQonE_Ejyqsc0-23" value="" style="childLayout=tableLayout;recursiveResize=0;shadow=0;fillColor=none;rounded=0;whiteSpace=wrap;" vertex="1" parent="1">
          <mxGeometry x="-153" y="-9" width="768" height="492.6999816894531" as="geometry" />
        </mxCell>
        <mxCell id="y7UK-94qQonE_Ejyqsc0-24" value="" style="shape=tableRow;horizontal=0;startSize=0;swimlaneHead=0;swimlaneBody=0;top=0;left=0;bottom=0;right=0;dropTarget=0;collapsible=0;recursiveResize=0;expand=0;fontStyle=0;fillColor=none;strokeColor=inherit;rounded=0;" vertex="1" parent="y7UK-94qQonE_Ejyqsc0-23">
          <mxGeometry width="768" height="75" as="geometry" />
        </mxCell>
        <mxCell id="y7UK-94qQonE_Ejyqsc0-25" value="Participante&lt;span style=&quot;white-space: pre;&quot;&gt;&#x9;&lt;/span&gt;&lt;span style=&quot;white-space: pre;&quot;&gt;&#x9;&lt;/span&gt;" style="connectable=0;recursiveResize=0;strokeColor=inherit;fillColor=none;align=center;whiteSpace=wrap;html=1;rounded=0;" vertex="1" parent="y7UK-94qQonE_Ejyqsc0-24">
          <mxGeometry width="256" height="75" as="geometry">
            <mxRectangle width="256" height="75" as="alternateBounds" />
          </mxGeometry>
        </mxCell>
        <mxCell id="y7UK-94qQonE_Ejyqsc0-26" value="Sistema&lt;span style=&quot;white-space: pre;&quot;&gt;&#x9;&lt;/span&gt;" style="connectable=0;recursiveResize=0;strokeColor=inherit;fillColor=none;align=center;whiteSpace=wrap;html=1;rounded=0;" vertex="1" parent="y7UK-94qQonE_Ejyqsc0-24">
          <mxGeometry x="256" width="256" height="75" as="geometry">
            <mxRectangle width="256" height="75" as="alternateBounds" />
          </mxGeometry>
        </mxCell>
        <mxCell id="y7UK-94qQonE_Ejyqsc0-27" value="Administrador" style="connectable=0;recursiveResize=0;strokeColor=inherit;fillColor=none;align=center;whiteSpace=wrap;html=1;rounded=0;" vertex="1" parent="y7UK-94qQonE_Ejyqsc0-24">
          <mxGeometry x="512" width="256" height="75" as="geometry">
            <mxRectangle width="256" height="75" as="alternateBounds" />
          </mxGeometry>
        </mxCell>
        <mxCell id="y7UK-94qQonE_Ejyqsc0-28" style="shape=tableRow;horizontal=0;startSize=0;swimlaneHead=0;swimlaneBody=0;top=0;left=0;bottom=0;right=0;dropTarget=0;collapsible=0;recursiveResize=0;expand=0;fontStyle=0;fillColor=none;strokeColor=inherit;rounded=0;" vertex="1" parent="y7UK-94qQonE_Ejyqsc0-23">
          <mxGeometry y="75" width="768" height="418" as="geometry" />
        </mxCell>
        <mxCell id="y7UK-94qQonE_Ejyqsc0-29" value="" style="connectable=0;recursiveResize=0;strokeColor=inherit;fillColor=none;align=center;whiteSpace=wrap;html=1;rounded=0;" vertex="1" parent="y7UK-94qQonE_Ejyqsc0-28">
          <mxGeometry width="256" height="418" as="geometry">
            <mxRectangle width="256" height="418" as="alternateBounds" />
          </mxGeometry>
        </mxCell>
        <mxCell id="y7UK-94qQonE_Ejyqsc0-30" value="" style="connectable=0;recursiveResize=0;strokeColor=inherit;fillColor=none;align=center;whiteSpace=wrap;html=1;rounded=0;" vertex="1" parent="y7UK-94qQonE_Ejyqsc0-28">
          <mxGeometry x="256" width="256" height="418" as="geometry">
            <mxRectangle width="256" height="418" as="alternateBounds" />
          </mxGeometry>
        </mxCell>
        <mxCell id="y7UK-94qQonE_Ejyqsc0-31" value="" style="connectable=0;recursiveResize=0;strokeColor=inherit;fillColor=none;align=center;whiteSpace=wrap;html=1;rounded=0;" vertex="1" parent="y7UK-94qQonE_Ejyqsc0-28">
          <mxGeometry x="512" width="256" height="418" as="geometry">
            <mxRectangle width="256" height="418" as="alternateBounds" />
          </mxGeometry>
        </mxCell>
        <mxCell id="y7UK-94qQonE_Ejyqsc0-53" value="el particpante completa&amp;nbsp;" style="shape=ext;double=1;rounded=1;whiteSpace=wrap;html=1;" vertex="1" parent="y7UK-94qQonE_Ejyqsc0-28">
          <mxGeometry x="768" width="NaN" height="418" as="geometry">
            <mxRectangle width="NaN" height="418" as="alternateBounds" />
          </mxGeometry>
        </mxCell>
        <mxCell id="y7UK-94qQonE_Ejyqsc0-55" value="el participante completa el registro en el sistema." style="shape=ext;double=1;rounded=1;whiteSpace=wrap;html=1;" vertex="1" parent="y7UK-94qQonE_Ejyqsc0-28">
          <mxGeometry width="NaN" height="418" as="geometry">
            <mxRectangle width="NaN" height="418" as="alternateBounds" />
          </mxGeometry>
        </mxCell>
        <mxCell id="y7UK-94qQonE_Ejyqsc0-57" value="el participante completa el registro en el sistema." style="shape=ext;double=1;rounded=1;whiteSpace=wrap;html=1;" vertex="1" parent="y7UK-94qQonE_Ejyqsc0-28">
          <mxGeometry width="NaN" height="418" as="geometry">
            <mxRectangle width="NaN" height="418" as="alternateBounds" />
          </mxGeometry>
        </mxCell>
        <mxCell id="y7UK-94qQonE_Ejyqsc0-61" value="el participante llena el formulario de la asistencia&lt;span style=&quot;white-space: pre;&quot;&gt;&#x9;&lt;/span&gt;" style="shape=ext;double=1;rounded=1;whiteSpace=wrap;html=1;" vertex="1" parent="y7UK-94qQonE_Ejyqsc0-28">
          <mxGeometry width="NaN" height="418" as="geometry">
            <mxRectangle width="NaN" height="418" as="alternateBounds" />
          </mxGeometry>
        </mxCell>
        <mxCell id="y7UK-94qQonE_Ejyqsc0-63" value="el participante llena el formulario de la asistencia&lt;span style=&quot;white-space: pre;&quot;&gt;&#x9;&lt;/span&gt;" style="shape=ext;double=1;rounded=1;whiteSpace=wrap;html=1;" vertex="1" parent="y7UK-94qQonE_Ejyqsc0-28">
          <mxGeometry width="NaN" height="418" as="geometry">
            <mxRectangle width="NaN" height="418" as="alternateBounds" />
          </mxGeometry>
        </mxCell>
        <mxCell id="y7UK-94qQonE_Ejyqsc0-66" value="" style="whiteSpace=wrap;html=1;rounded=1;" vertex="1" parent="y7UK-94qQonE_Ejyqsc0-28">
          <mxGeometry width="NaN" height="418" as="geometry">
            <mxRectangle width="NaN" height="418" as="alternateBounds" />
          </mxGeometry>
        </mxCell>
        <mxCell id="y7UK-94qQonE_Ejyqsc0-68" value="" style="whiteSpace=wrap;html=1;rounded=1;" vertex="1" parent="y7UK-94qQonE_Ejyqsc0-28">
          <mxGeometry width="NaN" height="418" as="geometry">
            <mxRectangle width="NaN" height="418" as="alternateBounds" />
          </mxGeometry>
        </mxCell>
        <mxCell id="y7UK-94qQonE_Ejyqsc0-49" value="" style="ellipse;html=1;shape=startState;fillColor=#000000;strokeColor=#ff0000;" vertex="1" parent="1">
          <mxGeometry x="-79" y="78" width="30" height="30" as="geometry" />
        </mxCell>
        <mxCell id="y7UK-94qQonE_Ejyqsc0-50" value="" style="edgeStyle=orthogonalEdgeStyle;html=1;verticalAlign=bottom;endArrow=open;endSize=8;strokeColor=#ff0000;rounded=0;entryX=0.5;entryY=0;entryDx=0;entryDy=0;" edge="1" source="y7UK-94qQonE_Ejyqsc0-49" parent="1" target="y7UK-94qQonE_Ejyqsc0-51">
          <mxGeometry relative="1" as="geometry">
            <mxPoint x="-64" y="168" as="targetPoint" />
          </mxGeometry>
        </mxCell>
        <mxCell id="y7UK-94qQonE_Ejyqsc0-54" value="" style="edgeStyle=orthogonalEdgeStyle;rounded=0;orthogonalLoop=1;jettySize=auto;html=1;" edge="1" parent="1" source="y7UK-94qQonE_Ejyqsc0-51" target="y7UK-94qQonE_Ejyqsc0-53">
          <mxGeometry relative="1" as="geometry" />
        </mxCell>
        <mxCell id="y7UK-94qQonE_Ejyqsc0-56" value="" style="edgeStyle=orthogonalEdgeStyle;rounded=0;orthogonalLoop=1;jettySize=auto;html=1;" edge="1" parent="1" source="y7UK-94qQonE_Ejyqsc0-51" target="y7UK-94qQonE_Ejyqsc0-55">
          <mxGeometry relative="1" as="geometry" />
        </mxCell>
        <mxCell id="y7UK-94qQonE_Ejyqsc0-58" value="" style="edgeStyle=orthogonalEdgeStyle;rounded=0;orthogonalLoop=1;jettySize=auto;html=1;" edge="1" parent="1" source="y7UK-94qQonE_Ejyqsc0-51" target="y7UK-94qQonE_Ejyqsc0-57">
          <mxGeometry relative="1" as="geometry" />
        </mxCell>
        <mxCell id="y7UK-94qQonE_Ejyqsc0-60" value="" style="edgeStyle=orthogonalEdgeStyle;rounded=0;orthogonalLoop=1;jettySize=auto;html=1;" edge="1" parent="1" source="y7UK-94qQonE_Ejyqsc0-51" target="y7UK-94qQonE_Ejyqsc0-59">
          <mxGeometry relative="1" as="geometry" />
        </mxCell>
        <mxCell id="y7UK-94qQonE_Ejyqsc0-51" value="el participante completa el registro en el sistema." style="shape=ext;double=1;rounded=1;whiteSpace=wrap;html=1;" vertex="1" parent="1">
          <mxGeometry x="-124" y="135" width="120" height="80" as="geometry" />
        </mxCell>
        <mxCell id="y7UK-94qQonE_Ejyqsc0-62" value="" style="edgeStyle=orthogonalEdgeStyle;rounded=0;orthogonalLoop=1;jettySize=auto;html=1;" edge="1" parent="1" source="y7UK-94qQonE_Ejyqsc0-59" target="y7UK-94qQonE_Ejyqsc0-61">
          <mxGeometry relative="1" as="geometry" />
        </mxCell>
        <mxCell id="y7UK-94qQonE_Ejyqsc0-64" value="" style="edgeStyle=orthogonalEdgeStyle;rounded=0;orthogonalLoop=1;jettySize=auto;html=1;" edge="1" parent="1" source="y7UK-94qQonE_Ejyqsc0-59" target="y7UK-94qQonE_Ejyqsc0-63">
          <mxGeometry relative="1" as="geometry" />
        </mxCell>
        <mxCell id="y7UK-94qQonE_Ejyqsc0-67" value="" style="edgeStyle=orthogonalEdgeStyle;rounded=0;orthogonalLoop=1;jettySize=auto;html=1;" edge="1" parent="1" source="y7UK-94qQonE_Ejyqsc0-59" target="y7UK-94qQonE_Ejyqsc0-66">
          <mxGeometry relative="1" as="geometry" />
        </mxCell>
        <mxCell id="y7UK-94qQonE_Ejyqsc0-71" style="edgeStyle=orthogonalEdgeStyle;rounded=0;orthogonalLoop=1;jettySize=auto;html=1;exitX=0.5;exitY=1;exitDx=0;exitDy=0;" edge="1" parent="1" source="y7UK-94qQonE_Ejyqsc0-59" target="y7UK-94qQonE_Ejyqsc0-70">
          <mxGeometry relative="1" as="geometry" />
        </mxCell>
        <mxCell id="y7UK-94qQonE_Ejyqsc0-59" value="el participante llena el formulario de la asistencia&lt;span style=&quot;white-space: pre;&quot;&gt;&#x9;&lt;/span&gt;" style="shape=ext;double=1;rounded=1;whiteSpace=wrap;html=1;" vertex="1" parent="1">
          <mxGeometry x="126" y="135" width="120" height="80" as="geometry" />
        </mxCell>
        <mxCell id="y7UK-94qQonE_Ejyqsc0-73" style="edgeStyle=orthogonalEdgeStyle;rounded=0;orthogonalLoop=1;jettySize=auto;html=1;exitX=0.5;exitY=1;exitDx=0;exitDy=0;entryX=0;entryY=0.5;entryDx=0;entryDy=0;" edge="1" parent="1" source="y7UK-94qQonE_Ejyqsc0-70" target="y7UK-94qQonE_Ejyqsc0-72">
          <mxGeometry relative="1" as="geometry" />
        </mxCell>
        <mxCell id="y7UK-94qQonE_Ejyqsc0-70" value="El participante envia el formulario&amp;nbsp;" style="shape=ext;double=1;rounded=1;whiteSpace=wrap;html=1;" vertex="1" parent="1">
          <mxGeometry x="134.5" y="250" width="103" height="56" as="geometry" />
        </mxCell>
        <mxCell id="y7UK-94qQonE_Ejyqsc0-75" style="edgeStyle=orthogonalEdgeStyle;rounded=0;orthogonalLoop=1;jettySize=auto;html=1;exitX=1;exitY=0.5;exitDx=0;exitDy=0;" edge="1" parent="1" source="y7UK-94qQonE_Ejyqsc0-72" target="y7UK-94qQonE_Ejyqsc0-74">
          <mxGeometry relative="1" as="geometry" />
        </mxCell>
        <mxCell id="y7UK-94qQonE_Ejyqsc0-72" value="basado en las participaciones el sistema genera un dashboard con resultados" style="shape=ext;double=1;rounded=1;whiteSpace=wrap;html=1;" vertex="1" parent="1">
          <mxGeometry x="217" y="318" width="120" height="80" as="geometry" />
        </mxCell>
        <mxCell id="y7UK-94qQonE_Ejyqsc0-77" style="edgeStyle=orthogonalEdgeStyle;rounded=0;orthogonalLoop=1;jettySize=auto;html=1;exitX=0.5;exitY=1;exitDx=0;exitDy=0;" edge="1" parent="1" source="y7UK-94qQonE_Ejyqsc0-74" target="y7UK-94qQonE_Ejyqsc0-76">
          <mxGeometry relative="1" as="geometry" />
        </mxCell>
        <mxCell id="y7UK-94qQonE_Ejyqsc0-74" value="El administrador gestion todos los resultados, y obtiene infromacion relevante." style="shape=ext;double=1;rounded=1;whiteSpace=wrap;html=1;" vertex="1" parent="1">
          <mxGeometry x="431" y="318" width="120" height="80" as="geometry" />
        </mxCell>
        <mxCell id="y7UK-94qQonE_Ejyqsc0-76" value="" style="ellipse;html=1;shape=endState;fillColor=#000000;strokeColor=#ff0000;" vertex="1" parent="1">
          <mxGeometry x="476" y="436" width="30" height="30" as="geometry" />
        </mxCell>
      </root>
    </mxGraphModel>
  </diagram>
  <diagram id="y_phiodP1oGaEqhQBobm" name="Página-3">
    <mxGraphModel dx="1567" dy="580" grid="0" gridSize="10" guides="1" tooltips="1" connect="1" arrows="1" fold="1" page="0" pageScale="1" pageWidth="827" pageHeight="1169" math="0" shadow="0">
      <root>
        <mxCell id="0" />
        <mxCell id="1" parent="0" />
        <mxCell id="2b8iXKZSh1aqmMfm7CgD-1" value="&lt;table border=&quot;1&quot; width=&quot;100%&quot; height=&quot;100%&quot; cellpadding=&quot;4&quot; style=&quot;width:100%;height:100%;border-collapse:collapse;&quot;&gt;&lt;tbody&gt;&lt;tr&gt;&lt;th align=&quot;center&quot;&gt;Administradores&lt;span style=&quot;white-space: pre;&quot;&gt;&#x9;&lt;/span&gt;&lt;/th&gt;&lt;/tr&gt;&lt;tr&gt;&lt;td&gt;- id :&amp;nbsp; &amp;nbsp; &amp;nbsp; &amp;nbsp; &amp;nbsp; &amp;nbsp; &amp;nbsp; &amp;nbsp; int&lt;br&gt;- Nombre:&amp;nbsp; &amp;nbsp; &amp;nbsp; &amp;nbsp;String&lt;br&gt;- Correo:&amp;nbsp; &amp;nbsp; &amp;nbsp; &amp;nbsp; &amp;nbsp;String&lt;br&gt;- Contraseña: String&lt;/td&gt;&lt;/tr&gt;&lt;tr&gt;&lt;td&gt;+ Genera_Reportes()&lt;br&gt;+ Evalua_Resultados()&lt;/td&gt;&lt;/tr&gt;&lt;/tbody&gt;&lt;/table&gt;" style="text;html=1;whiteSpace=wrap;strokeColor=none;fillColor=none;overflow=fill;" vertex="1" parent="1">
          <mxGeometry x="-216" y="37" width="180" height="180" as="geometry" />
        </mxCell>
        <mxCell id="2b8iXKZSh1aqmMfm7CgD-4" style="edgeStyle=orthogonalEdgeStyle;rounded=0;orthogonalLoop=1;jettySize=auto;html=1;exitX=0.5;exitY=1;exitDx=0;exitDy=0;entryX=1;entryY=0.5;entryDx=0;entryDy=0;endArrow=ERmany;endFill=0;" edge="1" parent="1" source="2b8iXKZSh1aqmMfm7CgD-2" target="2b8iXKZSh1aqmMfm7CgD-3">
          <mxGeometry relative="1" as="geometry" />
        </mxCell>
        <mxCell id="2b8iXKZSh1aqmMfm7CgD-2" value="&lt;table border=&quot;1&quot; width=&quot;100%&quot; height=&quot;100%&quot; cellpadding=&quot;4&quot; style=&quot;width:100%;height:100%;border-collapse:collapse;&quot;&gt;&lt;tbody&gt;&lt;tr&gt;&lt;th align=&quot;center&quot;&gt;Participantes&lt;/th&gt;&lt;/tr&gt;&lt;tr&gt;&lt;td&gt;- Carne:&amp;nbsp; &amp;nbsp; &amp;nbsp; &amp;nbsp; double&lt;br&gt;- Nombre:&amp;nbsp; &amp;nbsp; &amp;nbsp;String&lt;br&gt;-Apellido:&amp;nbsp; &amp;nbsp; &amp;nbsp; String&lt;br&gt;- Correo:&amp;nbsp; &amp;nbsp; &amp;nbsp; &amp;nbsp;String&lt;/td&gt;&lt;/tr&gt;&lt;tr&gt;&lt;td&gt;+ Registro_Asistencia()&lt;br&gt;+ Completar_feedback()&lt;br&gt;&lt;/td&gt;&lt;/tr&gt;&lt;/tbody&gt;&lt;/table&gt;" style="text;html=1;whiteSpace=wrap;strokeColor=none;fillColor=none;overflow=fill;" vertex="1" parent="1">
          <mxGeometry x="126" y="156" width="180" height="180" as="geometry" />
        </mxCell>
        <mxCell id="2b8iXKZSh1aqmMfm7CgD-5" value="" style="edgeStyle=orthogonalEdgeStyle;rounded=0;orthogonalLoop=1;jettySize=auto;html=1;endArrow=ERmany;endFill=0;" edge="1" parent="1" source="2b8iXKZSh1aqmMfm7CgD-3" target="2b8iXKZSh1aqmMfm7CgD-1">
          <mxGeometry relative="1" as="geometry" />
        </mxCell>
        <mxCell id="2b8iXKZSh1aqmMfm7CgD-3" value="&lt;table border=&quot;1&quot; width=&quot;100%&quot; height=&quot;100%&quot; cellpadding=&quot;4&quot; style=&quot;width:100%;height:100%;border-collapse:collapse;&quot;&gt;&lt;tbody&gt;&lt;tr&gt;&lt;th align=&quot;center&quot;&gt;Formulario Feeback&lt;/th&gt;&lt;/tr&gt;&lt;tr&gt;&lt;td&gt;- id :&amp;nbsp; &amp;nbsp; &amp;nbsp; &amp;nbsp; &amp;nbsp; &amp;nbsp; &amp;nbsp; &amp;nbsp; &amp;nbsp; &amp;nbsp; &amp;nbsp; &amp;nbsp; &amp;nbsp; &amp;nbsp; &amp;nbsp;int&lt;br&gt;- Tema_Simposio:&amp;nbsp; &amp;nbsp; &amp;nbsp; &amp;nbsp;String&lt;br&gt;- Salon:&amp;nbsp; &amp;nbsp; &amp;nbsp; &amp;nbsp; &amp;nbsp; &amp;nbsp; &amp;nbsp; &amp;nbsp; &amp;nbsp; &amp;nbsp; &amp;nbsp; &amp;nbsp;String&lt;br&gt;- Calificacion:&lt;br&gt;&lt;/td&gt;&lt;/tr&gt;&lt;tr&gt;&lt;td&gt;+ Genera_Resultados()&lt;br&gt;+ Obtiene_Feeback()&lt;/td&gt;&lt;/tr&gt;&lt;/tbody&gt;&lt;/table&gt;" style="text;html=1;whiteSpace=wrap;strokeColor=none;fillColor=none;overflow=fill;" vertex="1" parent="1">
          <mxGeometry x="-216" y="277" width="180" height="180" as="geometry" />
        </mxCell>
      </root>
    </mxGraphModel>
  </diagram>
</mxfile>
